<svg width="400" height="400" viewBox="0 0 400 400" fill="none" xmlns="http://www.w3.org/2000/svg">
<path d="M156.289 273.333H120.733V157.8H156.289V273.333ZM138.511 142.978C125.689 142.978 119.267 137.044 119.267 125.2C119.227 122.823 119.703 120.466 120.662 118.29C121.621 116.115 123.04 114.174 124.822 112.6C128.528 109.143 133.445 107.283 138.511 107.422C151.333 107.422 157.756 113.378 157.756 125.222C157.756 137.067 151.356 142.978 138.511 142.978V142.978ZM288.156 273.333H251.867V208.889C251.867 192.111 245.911 183.711 234.067 183.711C224.689 183.711 218.533 188.4 215.533 197.778C214.578 199.267 214.067 202.244 214.067 206.667V273.333H177.778V194.822C177.778 177.044 177.511 164.711 177.044 157.8H208.156L210.378 173.333C218.533 160.978 230.378 154.822 246.667 154.822C259.044 154.822 269.022 159.133 276.667 167.778C284.356 176.422 288.178 188.889 288.178 205.2V273.333H288.156ZM200 400C89.7111 400 0 310.289 0 200C0 89.7111 89.7111 0 200 0C310.289 0 400 89.7111 400 200C400 310.289 310.289 400 200 400ZM200 44.4444C114.244 44.4444 44.4444 114.244 44.4444 200C44.4444 285.756 114.244 355.556 200 355.556C285.756 355.556 355.556 285.756 355.556 200C355.556 114.244 285.756 44.4444 200 44.4444Z" fill="#BE9C79"/>
</svg>
